<?xml version="1.0" encoding="UTF-8" standalone="no"?>
<!-- Generator: Adobe Illustrator 19.1.0, SVG Export Plug-In . SVG Version: 6.00 Build 0)  -->

<svg
   version="1.1"
   id="Capa_1"
   x="0px"
   y="0px"
   viewBox="0 0 405.80702 642.05972"
   xml:space="preserve"
   sodipodi:docname="edupin.svg"
   width="405.80701"
   height="642.05969"
   inkscape:version="1.2 (dc2aedaf03, 2022-05-15)"
   inkscape:export-filename="edupin-preprod.png"
   inkscape:export-xdpi="11.828282"
   inkscape:export-ydpi="11.828282"
   xmlns:inkscape="http://www.inkscape.org/namespaces/inkscape"
   xmlns:sodipodi="http://sodipodi.sourceforge.net/DTD/sodipodi-0.dtd"
   xmlns="http://www.w3.org/2000/svg"
   xmlns:svg="http://www.w3.org/2000/svg"><defs
   id="defs43" /><sodipodi:namedview
   id="namedview41"
   pagecolor="#ffffff"
   bordercolor="#999999"
   borderopacity="1"
   inkscape:showpageshadow="0"
   inkscape:pageopacity="0"
   inkscape:pagecheckerboard="true"
   inkscape:deskcolor="#d1d1d1"
   showgrid="false"
   inkscape:zoom="1.3365169"
   inkscape:cx="142.90878"
   inkscape:cy="380.84067"
   inkscape:window-width="1920"
   inkscape:window-height="1009"
   inkscape:window-x="1912"
   inkscape:window-y="-8"
   inkscape:window-maximized="1"
   inkscape:current-layer="Capa_1" />
<g
   id="g8"
   transform="translate(-107.231,7.5)"
   style="fill:#1d4a74;fill-opacity:1">
	<g
   id="g6"
   style="fill:#1d4a74;fill-opacity:1">
		<g
   inkscape:groupmode="layer"
   id="layer1"
   inkscape:label="Layer 1"
   transform="translate(114.731)"><ellipse
     style="fill:#1d4a74;fill-opacity:1;stroke:none;stroke-width:0.916077"
     id="path3911"
     cx="195.18558"
     cy="196.30232"
     rx="151.041"
     ry="153.29532" /></g><g
   id="g4"
   style="fill:#d7dbed;fill-opacity:1;stroke:#1d4a74;stroke-width:4;stroke-dasharray:none;stroke-opacity:1">
			<path
   style="fill:#d7dbed;fill-opacity:1;stroke:#1d4a74;stroke-width:1.5;stroke-dasharray:none;stroke-opacity:1"
   d="m 317.12,97.233 c -54.752,-2.56 -105.205,18.632 -141.404,54.43 l 15.339,15.574 c 31.988,-31.675 76.588,-50.404 125.009,-48.147 44.62,2.032 84.287,21.573 112.884,51.655 l 15.574,-15.378 C 412.184,121.57 367.397,99.578 317.12,97.233 Z"
   id="path13636" /><path
   style="fill:#d7dbed;fill-opacity:1;stroke:#1d4a74;stroke-width:1.5;stroke-dasharray:none;stroke-opacity:1"
   d="m 461.328,195.413 c 0,-83.379 -67.854,-151.184 -151.193,-151.184 -83.359,0 -151.203,67.805 -151.203,151.184 0,83.32 67.844,151.203 151.203,151.203 83.329,0 151.193,-67.883 151.193,-151.203 z"
   id="path13634" /><path
   style="fill:#d7dbed;fill-opacity:1;stroke:#1d4a74;stroke-width:15;stroke-dasharray:none;stroke-opacity:1"
   d="m 505.538,195.413 c 0,107.931 -195.403,424.856 -195.403,424.856 0,0 -195.404,-316.935 -195.404,-424.856 C 114.731,87.511 202.223,0 310.134,0 418.045,0 505.538,87.511 505.538,195.413 Z"
   id="path13632" /><path
   style="fill:#d7dbed;fill-opacity:1;stroke:#1d4a74;stroke-width:1.5;stroke-dasharray:none;stroke-opacity:1"
   d="m 199.507,179.468 15.71,15.955 c 25.1,-24.894 60.047,-39.765 98.063,-38.006 35.202,1.651 66.496,17.176 88.967,40.976 l 15.974,-15.681 c -26.301,-27.708 -62.783,-45.773 -103.867,-47.698 -44.531,-2.023 -85.42,15.329 -114.847,44.454 z"
   id="path13630" /><path
   style="fill:#d7dbed;fill-opacity:1;stroke:#1d4a74;stroke-width:1.5;stroke-dasharray:none;stroke-opacity:1"
   d="m 308.425,244.537 c -14.274,0 -25.852,11.558 -25.852,25.823 0,14.284 11.578,25.862 25.852,25.862 14.255,0 25.813,-11.578 25.813,-25.862 0.009,-14.264 -11.549,-25.823 -25.813,-25.823 z"
   id="path13628" /><path
   style="fill:#d7dbed;fill-opacity:1;stroke:#1d4a74;stroke-width:1.5;stroke-dasharray:none;stroke-opacity:1"
   d="m 226.199,206.571 14.821,15.085 c 17.977,-18.075 43.165,-28.929 70.57,-27.64 25.647,1.192 48.333,12.633 64.473,30.151 l 15.046,-14.841 c -19.726,-21.162 -47.356,-34.997 -78.542,-36.482 -33.551,-1.544 -64.346,11.617 -86.368,33.727 z"
   id="path13626" /><path
   style="fill:#d7dbed;fill-opacity:1;stroke:#1d4a74;stroke-width:1.5;stroke-dasharray:none;stroke-opacity:1"
   d="m 363.382,236.643 -13.502,13.229 c -9.809,-11.177 -23.956,-18.524 -39.979,-19.257 -16.824,-0.791 -32.29,5.882 -43.243,17.127 l -13.229,-13.424 c 14.597,-14.772 35.046,-23.595 57.37,-22.54 20.908,0.987 39.5,10.415 52.583,24.865 z"
   id="path2" />
		</g>
	</g>
</g>
<g
   id="g10"
   transform="translate(-107.231,7.5)">
</g>
<g
   id="g12"
   transform="translate(-107.231,7.5)">
</g>
<g
   id="g14"
   transform="translate(-107.231,7.5)">
</g>
<g
   id="g16"
   transform="translate(-107.231,7.5)">
</g>
<g
   id="g18"
   transform="translate(-107.231,7.5)">
</g>
<g
   id="g20"
   transform="translate(-107.231,7.5)">
</g>
<g
   id="g22"
   transform="translate(-107.231,7.5)">
</g>
<g
   id="g24"
   transform="translate(-107.231,7.5)">
</g>
<g
   id="g26"
   transform="translate(-107.231,7.5)">
</g>
<g
   id="g28"
   transform="translate(-107.231,7.5)">
</g>
<g
   id="g30"
   transform="translate(-107.231,7.5)">
</g>
<g
   id="g32"
   transform="translate(-107.231,7.5)">
</g>
<g
   id="g34"
   transform="translate(-107.231,7.5)">
</g>
<g
   id="g36"
   transform="translate(-107.231,7.5)">
</g>
<g
   id="g38"
   transform="translate(-107.231,7.5)">
</g>
<g
   id="g13608"
   transform="translate(-107.231,7.5)"
   style="fill:#1d4a74;fill-opacity:1">
	<g
   id="g13606"
   style="fill:#1d4a74;fill-opacity:1">
		<g
   inkscape:groupmode="layer"
   id="g13600"
   inkscape:label="Layer 1"
   transform="translate(114.731)"><ellipse
     style="fill:#1d4a74;fill-opacity:1;stroke:none;stroke-width:0.916077"
     id="ellipse13598"
     cx="195.18558"
     cy="196.30232"
     rx="151.041"
     ry="153.29532" /></g><g
   id="g13604"
   style="fill:#d7dbed;fill-opacity:1;stroke:#1d4a74;stroke-width:4;stroke-dasharray:none;stroke-opacity:1">
			<path
   style="fill:#d7dbed;fill-opacity:1;stroke:#1d4a74;stroke-width:1.5;stroke-dasharray:none;stroke-opacity:1"
   d="m 363.382,236.643 -13.502,13.229 c -9.809,-11.177 -23.956,-18.524 -39.979,-19.257 -16.824,-0.791 -32.29,5.882 -43.243,17.127 l -13.229,-13.424 c 14.597,-14.772 35.046,-23.595 57.37,-22.54 20.908,0.987 39.5,10.415 52.583,24.865 z m -137.183,-30.072 14.821,15.085 c 17.977,-18.075 43.165,-28.929 70.57,-27.64 25.647,1.192 48.333,12.633 64.473,30.151 l 15.046,-14.841 c -19.726,-21.162 -47.356,-34.997 -78.542,-36.482 -33.551,-1.544 -64.346,11.617 -86.368,33.727 z m 82.226,37.966 c -14.274,0 -25.852,11.558 -25.852,25.823 0,14.284 11.578,25.862 25.852,25.862 14.255,0 25.813,-11.578 25.813,-25.862 0.009,-14.264 -11.549,-25.823 -25.813,-25.823 z m -108.918,-65.069 15.71,15.955 c 25.1,-24.894 60.047,-39.765 98.063,-38.006 35.202,1.651 66.496,17.176 88.967,40.976 l 15.974,-15.681 c -26.301,-27.708 -62.783,-45.773 -103.867,-47.698 -44.531,-2.023 -85.42,15.329 -114.847,44.454 z m 306.031,15.945 c 0,107.931 -195.403,424.856 -195.403,424.856 0,0 -195.404,-316.935 -195.404,-424.856 C 114.731,87.511 202.223,0 310.134,0 418.045,0 505.538,87.511 505.538,195.413 Z m -44.21,0 c 0,-83.379 -67.854,-151.184 -151.193,-151.184 -83.359,0 -151.203,67.805 -151.203,151.184 0,83.32 67.844,151.203 151.203,151.203 83.329,0 151.193,-67.883 151.193,-151.203 z M 317.12,97.233 c -54.752,-2.56 -105.205,18.632 -141.404,54.43 l 15.339,15.574 c 31.988,-31.675 76.588,-50.404 125.009,-48.147 44.62,2.032 84.287,21.573 112.884,51.655 l 15.574,-15.378 C 412.184,121.57 367.397,99.578 317.12,97.233 Z"
   id="path13602" />
		</g>
	</g>
</g></svg>
